# xmcd
#
# Track frame offsets:
#	150
#	17698
#	30802
#	43718
#	56597
#	69615
#	83186
#	99997
#	111899
#	122155
#	136592
#	153797
#	164556
#	184498
#	200320
#	212416
#	224901
#	239430
#	254460
#	270037
#
# Disc length: 3727 seconds
#
# Revision: 0
# Processed by: cddbd v1.5.2PL0 Copyright (c) Steve Scherf et al.
# Submitted via: EasyCDDAExtractor 11.0.3.1
#
DISCID=130e8d14
DTITLE=Various Artist - Pure Country [cd1]
DYEAR=2007
DGENRE=Country
TTITLE0=Kenny Rogers - Lady
TTITLE1=Crystal Gayle - Talking in Your Sleep
TTITLE2=Billie Jo Spears - What the World Needs Now is Love
TTITLE3=Don Williams - You Love Me Through it All
TTITLE4=Dr. Hook - Sharing the Night Together
TTITLE5=Glen Campbell - Honey, Come Back
TTITLE6=Suzy Bogguss - Train of Thought
TTITLE7=Wanda Jackson - Crazy
TTITLE8=Willie Nelson - There'll Be No Teardrops Tonight
TTITLE9=Tanya - Just Another Love
TTITLE10=Nitty Gritty Dirt Band - (All I Have to Do is) Dream
TTITLE11=Slim Whitman - The Most Beautiful Girl
TTITLE12=Lacy J Dalton - Stay with Me
TTITLE13=Juice Newton and Silver Spur - Come to Me
TTITLE14=George Jones and Melba Montgomery - We Must Have Been Out of Our Minds
TTITLE15=Faron Young - Sweet Dreams
TTITLE16=Eddie Rabbit - The Best Years of My Life
TTITLE17=Bobbie Gentry - You've Made Me So Very Happy
TTITLE18=Asleep at the Wheel - Old Fashioned Love
TTITLE19=Jean Shepard - Another Lonely Night
EXTD=
EXTT0=
EXTT1=
EXTT2=
EXTT3=
EXTT4=
EXTT5=
EXTT6=
EXTT7=
EXTT8=
EXTT9=
EXTT10=
EXTT11=
EXTT12=
EXTT13=
EXTT14=
EXTT15=
EXTT16=
EXTT17=
EXTT18=
EXTT19=
PLAYORDER=
